<svg id="Layer_1" data-name="Layer 1" xmlns="http://www.w3.org/2000/svg" viewBox="0 0 368.5 127.56"><defs><style>.cls-1{fill:#2a317a;}.cls-2{fill:#47c1ef;}</style></defs><g id="Group_2832" data-name="Group 2832"><g id="Group_2826" data-name="Group 2826"><g id="Group_2803" data-name="Group 2803"><path id="Path_10686" data-name="Path 10686" class="cls-1" d="M59,94.15h1.46v15.59H59Z"/></g><g id="Group_2804" data-name="Group 2804"><path id="Path_10687" data-name="Path 10687" class="cls-1" d="M63.09,98.45h1.35v1.7h0a3.9,3.9,0,0,1,3.43-1.94,3,3,0,0,1,3,2h0a4,4,0,0,1,3.62-2,3.27,3.27,0,0,1,3.42,3.08v8.44H76.68v-7.9a2.23,2.23,0,0,0-2-2.45h0a1.55,1.55,0,0,0-.43,0,3,3,0,0,0-3.07,2.92,1.22,1.22,0,0,0,0,.27v7.18H69.89v-7.92A2.17,2.17,0,0,0,68,99.39a1.55,1.55,0,0,0-.43,0,3.21,3.21,0,0,0-3.16,3.19v7.18H63.09Z"/></g><g id="Group_2805" data-name="Group 2805"><path id="Path_10688" data-name="Path 10688" class="cls-1" d="M80.21,98.45h1.36v1.94h0a4.19,4.19,0,0,1,3.82-2.18c2.7,0,4.67,2.13,4.67,5.89,0,3.48-1.79,5.92-4.76,5.92a4.18,4.18,0,0,1-3.73-1.87h0v5.26H80.21Zm8.51,5.7c0-2.82-1.22-4.79-3.47-4.79-2.49,0-3.8,2.12-3.8,4.8s1.24,4.74,3.82,4.74C87.59,108.9,88.72,106.77,88.72,104.15Z"/></g><g id="Group_2806" data-name="Group 2806"><path id="Path_10689" data-name="Path 10689" class="cls-1" d="M91.78,98.45h1.35v2.1h0a3.81,3.81,0,0,1,3.45-2.19,1.57,1.57,0,0,1,.37,0v1.33a3.25,3.25,0,0,0-2.4.54,3.68,3.68,0,0,0-1.47,3v6.42h-1.3Z"/></g><g id="Group_2807" data-name="Group 2807"><path id="Path_10690" data-name="Path 10690" class="cls-1" d="M97.37,104.15c0-3.37,2-5.92,5.24-5.92s5.2,2.55,5.2,5.92-1.94,5.91-5.2,5.91S97.37,107.47,97.37,104.15Zm9.06,0c0-2.65-1.31-4.79-3.82-4.79s-3.84,2.1-3.84,4.79,1.31,4.78,3.84,4.78S106.43,106.79,106.43,104.15Z"/></g><g id="Group_2808" data-name="Group 2808"><path id="Path_10691" data-name="Path 10691" class="cls-1" d="M108.18,98.45h1.44l2.43,7.16c.37,1.09.91,2.86.91,2.86h0s.57-1.77.94-2.86l2.53-7.16h1.37l-4,11.29h-1.6Z"/></g><g id="Group_2809" data-name="Group 2809"><path id="Path_10692" data-name="Path 10692" class="cls-1" d="M118.23,104.15c0-3.38,2-5.92,5.15-5.92,3.62,0,4.87,3,4.85,6.16h-8.61c.07,2.53,1.29,4.52,3.87,4.52a3.17,3.17,0,0,0,3.3-2.53h1.31a4.42,4.42,0,0,1-4.61,3.68C120.1,110,118.23,107.49,118.23,104.15Zm8.58-.83c-.07-2.23-1.12-4-3.43-4s-3.5,1.73-3.73,4Z"/></g><g id="Group_2810" data-name="Group 2810"><path id="Path_10693" data-name="Path 10693" class="cls-1" d="M129.32,104.15c0-3.76,2.13-5.92,4.82-5.92a4,4,0,0,1,3.72,2.12h0v-6.2h1.36v15.59h-1.36v-1.68h0a4,4,0,0,1-3.67,2C131.15,110,129.32,107.6,129.32,104.15Zm8.69,0c0-2.77-1.33-4.8-3.78-4.8-2.22,0-3.51,2-3.51,4.8,0,2.64,1.13,4.76,3.51,4.76S138,107,138,104.15Z"/></g><g id="Group_2811" data-name="Group 2811"><path id="Path_10694" data-name="Path 10694" class="cls-1" d="M145.06,94.15h6.14a4.72,4.72,0,0,1,3.67,1.35,4.25,4.25,0,0,1,1.09,3c0,2.89-1.68,4.46-5,4.46h-4.39v6.79h-1.46Zm5.83,7.57c2.54,0,3.58-1.2,3.58-3.16s-1.2-3.12-3.45-3.12h-4.45v6.28Z"/></g><g id="Group_2812" data-name="Group 2812"><path id="Path_10695" data-name="Path 10695" class="cls-1" d="M156.42,106.86c0-2.69,2.1-3.23,4.65-3.54,2.23-.26,3-.39,3-1.53v-.22c0-1.52-1-2.27-2.71-2.27-2,0-3.06.83-3.17,2.51h-1.33c.16-2.18,1.6-3.6,4.5-3.6,2.47,0,4,1,4,3.5v6.13c0,.68.26,1,.74,1a4.37,4.37,0,0,0,.5-.09h.07v1a2.1,2.1,0,0,1-.92.18,1.51,1.51,0,0,1-1.65-1.34,1.13,1.13,0,0,1,0-.26v-.24H164a4.56,4.56,0,0,1-4,1.94C158,110,156.42,109,156.42,106.86Zm7.71-1.2v-2a9.57,9.57,0,0,1-2.93.74c-1.9.26-3.36.54-3.36,2.49,0,1.57,1.18,2,2.51,2a3.46,3.46,0,0,0,3.77-3.12h0s0-.11,0-.15Z"/></g><g id="Group_2813" data-name="Group 2813"><path id="Path_10696" data-name="Path 10696" class="cls-1" d="M168.57,107.8V99.56h-1.7V98.45h1.7V95h1.36v3.47H172v1.12h-2.09v8c0,.81.37,1.07,1.09,1.07a2.77,2.77,0,0,0,.89-.18H172v1.15a3.5,3.5,0,0,1-1.24.2C169.43,109.83,168.57,109.24,168.57,107.8Z"/></g><g id="Group_2814" data-name="Group 2814"><path id="Path_10697" data-name="Path 10697" class="cls-1" d="M173.82,94.15h1.36v1.9h-1.36Zm0,4.32h1.36v11.27h-1.36Z"/></g><g id="Group_2815" data-name="Group 2815"><path id="Path_10698" data-name="Path 10698" class="cls-1" d="M176.88,104.15c0-3.38,2-5.92,5.16-5.92,3.62,0,4.87,3,4.84,6.16h-8.6c.06,2.53,1.29,4.52,3.86,4.52a3.15,3.15,0,0,0,3.3-2.53h1.31a4.4,4.4,0,0,1-4.61,3.68C178.76,110,176.88,107.49,176.88,104.15Zm8.58-.83c-.06-2.23-1.11-4-3.43-4s-3.49,1.73-3.73,4Z"/></g><g id="Group_2816" data-name="Group 2816"><path id="Path_10699" data-name="Path 10699" class="cls-1" d="M188.57,98.45h1.35v1.7h0a4.35,4.35,0,0,1,3.78-2,3.32,3.32,0,0,1,3.6,3,4.51,4.51,0,0,1,0,.52v8h-1.36v-7.81a2.27,2.27,0,0,0-2-2.5,1.75,1.75,0,0,0-.56,0,3.31,3.31,0,0,0-3.49,3.12v7.25h-1.32Z"/></g><g id="Group_2817" data-name="Group 2817"><path id="Path_10700" data-name="Path 10700" class="cls-1" d="M200.25,107.8V99.56h-1.68V98.45h1.71V95h1.29v3.47h2.1v1.12h-2.1v8c0,.81.37,1.07,1.09,1.07a2.77,2.77,0,0,0,.89-.18h.07v1.15a3.56,3.56,0,0,1-1.25.2,1.86,1.86,0,0,1-2.11-1.57A1.62,1.62,0,0,1,200.25,107.8Z"/></g><g id="Group_2818" data-name="Group 2818"><path id="Path_10701" data-name="Path 10701" class="cls-1" d="M208.39,101.92c0-4.65,2.85-8.12,7.25-8.12s7.29,3.47,7.29,8.12-2.86,8.12-7.29,8.12S208.39,106.57,208.39,101.92Zm13,0c0-3.78-2-6.81-5.77-6.81s-5.72,3-5.72,6.81,2,6.81,5.72,6.81,5.79-3,5.79-6.81Z"/></g><g id="Group_2819" data-name="Group 2819"><path id="Path_10702" data-name="Path 10702" class="cls-1" d="M224.77,106.42v-8h1.36v7.88a2.36,2.36,0,0,0,2.15,2.55,2.18,2.18,0,0,0,.51,0,3.23,3.23,0,0,0,3.28-3.15V98.45h1.33v11.29h-1.33v-1.66h0a4,4,0,0,1-3.53,1.92,3.4,3.4,0,0,1-3.71-3.06h0A2.9,2.9,0,0,1,224.77,106.42Z"/></g><g id="Group_2820" data-name="Group 2820"><path id="Path_10703" data-name="Path 10703" class="cls-1" d="M236.57,107.8V99.56h-1.71V98.45h1.71V95h1.35v3.47H240v1.12h-2.1v8c0,.81.38,1.07,1.1,1.07a2.66,2.66,0,0,0,.88-.18H240v1.15a3.5,3.5,0,0,1-1.24.2A1.87,1.87,0,0,1,236.57,107.8Z"/></g><g id="Group_2821" data-name="Group 2821"><path id="Path_10704" data-name="Path 10704" class="cls-1" d="M241,104.15c0-3.37,1.88-5.92,5.15-5.92a4.22,4.22,0,0,1,4.55,3.67h-1.36a2.92,2.92,0,0,0-3.19-2.53c-2.6,0-3.75,2.16-3.75,4.78s1.18,4.76,3.73,4.76a3.18,3.18,0,0,0,3.34-3h1.29a4.33,4.33,0,0,1-4.49,4.17h-.13C242.85,110,241,107.47,241,104.15Z"/></g><g id="Group_2822" data-name="Group 2822"><path id="Path_10705" data-name="Path 10705" class="cls-1" d="M251.74,104.15c0-3.37,2-5.92,5.24-5.92s5.2,2.55,5.2,5.92-1.94,5.91-5.2,5.91S251.74,107.47,251.74,104.15Zm9.07,0c0-2.65-1.31-4.79-3.82-4.79s-3.85,2.14-3.85,4.79,1.31,4.78,3.85,4.78,3.81-2.14,3.81-4.78Z"/></g><g id="Group_2823" data-name="Group 2823"><path id="Path_10706" data-name="Path 10706" class="cls-1" d="M263.88,98.45h1.36v1.7h0a3.9,3.9,0,0,1,3.43-1.94,3,3,0,0,1,3,2h0a4,4,0,0,1,3.62-2,3.29,3.29,0,0,1,3.41,3.18c0,.11,0,.23,0,.34v8h-1.33v-7.9a2.23,2.23,0,0,0-1.95-2.45h-.05a1.55,1.55,0,0,0-.43,0,3,3,0,0,0-3.07,2.92,1.22,1.22,0,0,0,0,.27v7.18h-1.35v-7.92a2.17,2.17,0,0,0-1.85-2.44,1.48,1.48,0,0,0-.42,0,3.21,3.21,0,0,0-3.17,3.19v7.18h-1.35Z"/></g><g id="Group_2824" data-name="Group 2824"><path id="Path_10707" data-name="Path 10707" class="cls-1" d="M280.41,104.15c0-3.38,2-5.92,5.16-5.92,3.62,0,4.87,3,4.85,6.16h-8.61c.07,2.53,1.29,4.52,3.87,4.52a3.15,3.15,0,0,0,3.29-2.53h1.31a4.38,4.38,0,0,1-4.6,3.68C282.29,110,280.41,107.49,280.41,104.15Zm8.59-.83c-.07-2.23-1.12-4-3.43-4s-3.5,1.73-3.74,4Z"/></g><g id="Group_2825" data-name="Group 2825"><path id="Path_10708" data-name="Path 10708" class="cls-1" d="M291.38,106.22h1.37a2.9,2.9,0,0,0,3.08,2.7h.24c1.88,0,2.86-.87,2.86-2.18s-.7-1.66-3-2.19-4.13-1.06-4.13-3.25c0-1.88,1.62-3.06,3.93-3.06a3.68,3.68,0,0,1,4.17,3.11h0v.22h-1.33c-.15-1.46-1.16-2.22-2.84-2.22s-2.58.83-2.58,1.87c0,1.29,1.07,1.6,3.23,2.1s3.91,1,3.91,3.38c0,2-1.61,3.36-4.23,3.36C293,110.05,291.51,108.41,291.38,106.22Z"/></g></g><g id="Group_2829" data-name="Group 2829"><g id="Group_2827" data-name="Group 2827"><path id="Path_10709" data-name="Path 10709" class="cls-1" d="M33.25,66.86h9.67V48.25a6.23,6.23,0,0,1,.39-2.49A5,5,0,0,1,48,42.15c3.13,0,4.62,2.76,4.62,6.81v17.9h9.66V48.15a8.18,8.18,0,0,1,.34-2.51,4.84,4.84,0,0,1,4.57-3.49c3.2,0,4.71,2.68,4.71,7.32V66.86h9.66V48.05c0-9.53-4.64-13.84-10.77-13.84a11.57,11.57,0,0,0-6.08,1.56,13.34,13.34,0,0,0-4.09,3.86h-.13a9.05,9.05,0,0,0-8.75-5.42,11,11,0,0,0-9.67,5h-.2l-.45-4.31H33c.13,2.81.26,6.2.26,10.19Zm84.37-12.8a23.27,23.27,0,0,0,.33-3.91c0-7.91-3.92-15.94-14.24-15.94-11.14,0-16.14,8.94-16.14,17,0,10,6.2,16.33,17,16.33a31.61,31.61,0,0,0,11.55-2l-1.31-6.73a28.31,28.31,0,0,1-8.76,1.3c-4.63,0-8.68-2-9-6.08ZM97,47.27c.26-2.68,2-6.47,6.13-6.47,4.57,0,5.62,4.05,5.62,6.47Zm47.93-26.78V37.8h-.14c-1.43-2.22-4.5-3.59-8.42-3.59-7.64,0-14.37,6.2-14.3,17,0,9.92,6.08,16.38,13.65,16.38a11.14,11.14,0,0,0,10-5.42h.13l.46,4.7h8.82c-.14-2.15-.27-5.94-.27-9.53V20.49Zm0,32.13a8.43,8.43,0,0,1-.26,2.29,5.8,5.8,0,0,1-5.74,4.76c-4.12,0-6.8-3.39-6.8-8.81,0-5,2.35-9.08,6.86-9.08a6,6,0,0,1,5.81,4.9c.07.58.12,1.17.14,1.76ZM161,65.29a22.46,22.46,0,0,0,10.32,2.28c9.16,0,13.86-4.44,13.86-10.38-.06-4.7-2.62-7.77-8.69-9.86-3.92-1.37-5.17-2.15-5.17-3.65s1.38-2.62,3.8-2.62A15.82,15.82,0,0,1,182,42.89L183.78,36a21.3,21.3,0,0,0-9-1.83c-7.91,0-13,4.5-13,10.51-.06,3.72,2.49,7.32,9.09,9.54,3.73,1.24,4.71,2,4.71,3.65s-1.25,2.67-4.26,2.67a19.21,19.21,0,0,1-8.57-2.43Zm54.15,1.57h9.93V50.66a11.81,11.81,0,0,1,.18-2.22,6.41,6.41,0,0,1,6.8-5,10,10,0,0,1,2.67.33V34.33a10.44,10.44,0,0,0-2.09-.12A9.36,9.36,0,0,0,224,40.8h-.26l-.31-5.88h-8.57c.14,2.74.27,5.81.27,10.51Zm39.5-32.65c-10.24,0-17,6.59-17,16.91s7.19,16.45,16.53,16.45c8.55,0,16.85-5.35,16.85-17a15.52,15.52,0,0,0-14.68-16.32h0a15,15,0,0,0-1.64,0m-.26,7c4.5,0,6.34,4.83,6.34,9.59,0,5.75-2.49,9.6-6.34,9.6-4.24,0-6.53-4.11-6.53-9.6,0-4.7,1.78-9.59,6.53-9.59m22.71,25.6h9.66V48.25a6.41,6.41,0,0,1,.4-2.49,5,5,0,0,1,4.6-3.61c3.13,0,4.57,2.74,4.57,6.79v17.9H306V48.15a8.14,8.14,0,0,1,.4-2.55A4.85,4.85,0,0,1,311,42.15c3.2,0,4.7,2.68,4.7,7.32V66.86h9.67V48.05c0-9.53-4.64-13.84-10.77-13.84a11.53,11.53,0,0,0-6.07,1.56,13.44,13.44,0,0,0-4.12,3.86h-.13a9.07,9.07,0,0,0-8.76-5.42,11.06,11.06,0,0,0-9.66,5h-.19l-.46-4.31h-8.35c.12,2.81.25,6.2.25,10.19Z"/></g><g id="Group_2828" data-name="Group 2828"><path id="Path_10710" data-name="Path 10710" class="cls-1" d="M192.57,28.92v6h-4.25v7.32h4.25a103.61,103.61,0,0,0,.41,11,27,27,0,0,0,1.12,9.11,10.7,10.7,0,0,0,8.65,5.25,19.2,19.2,0,0,0,6.47-.91l-.1-7.54a12.67,12.67,0,0,1-2.94.26c-3,0-3.92-1.77-3.92-5.62V42.23h7.12V34.92h-7.12V26.24Z"/></g></g><g id="Group_2830" data-name="Group 2830"><path id="Path_10711" data-name="Path 10711" class="cls-2" d="M354.88,22.94h-8.79V14.15h-6.6v8.79H330.7v6.6h8.79v8.8h6.6v-8.8h8.79Z"/></g><g id="Group_2831" data-name="Group 2831"><rect id="Rectangle_4120" data-name="Rectangle 4120" class="cls-2" x="13.63" y="81.06" width="331.08" height="2.63"/></g></g></svg>